<svg width="240" height="190" viewBox="0 0 240 190" fill="none" xmlns="http://www.w3.org/2000/svg" shape-rendering="crispEdges">
  <rect x="72" y="20" width="8" height="8" fill="#111"/>
  <rect x="80" y="12" width="8" height="8" fill="#111"/>
  <rect x="88" y="4" width="28" height="8" fill="#111"/>
  <rect x="116" y="12" width="8" height="8" fill="#111"/>
  <rect x="124" y="20" width="8" height="20" fill="#111"/>
  <rect x="158" y="4" width="30" height="8" fill="#111"/>
  <rect x="188" y="12" width="8" height="8" fill="#111"/>
  <rect x="196" y="20" width="8" height="26" fill="#111"/>
  <rect x="180" y="46" width="18" height="8" fill="#111"/>
  <rect x="100" y="48" width="98" height="8" fill="#111"/>
  <rect x="84" y="56" width="16" height="8" fill="#111"/>
  <rect x="198" y="56" width="16" height="8" fill="#111"/>
  <rect x="76" y="64" width="8" height="58" fill="#111"/>
  <rect x="214" y="64" width="8" height="58" fill="#111"/>
  <rect x="84" y="122" width="16" height="16" fill="#111"/>
  <rect x="198" y="122" width="16" height="16" fill="#111"/>
  <rect x="100" y="138" width="98" height="8" fill="#111"/>
  <rect x="100" y="56" width="98" height="8" fill="#4a4a4a"/>
  <rect x="92" y="64" width="114" height="8" fill="#505050"/>
  <rect x="84" y="72" width="130" height="42" fill="#3b3b3b"/>
  <rect x="92" y="114" width="114" height="18" fill="#333"/>
  <rect x="108" y="132" width="82" height="8" fill="#2c2c2c"/>
  <rect x="112" y="78" width="14" height="24" fill="#0b0b0b"/>
  <rect x="172" y="78" width="14" height="24" fill="#0b0b0b"/>
  <rect x="116" y="82" width="5" height="7" fill="#fff"/>
  <rect x="176" y="82" width="5" height="7" fill="#fff"/>
  <rect x="136" y="108" width="8" height="4" fill="#151515"/>
  <rect x="144" y="112" width="20" height="4" fill="#151515"/>
  <rect x="164" y="108" width="8" height="4" fill="#151515"/>
  <rect x="96" y="84" width="14" height="8" fill="#5e5e5e"/>
  <rect x="190" y="76" width="8" height="18" fill="#5b5b5b"/>
  <rect x="88" y="132" width="22" height="36" fill="#111"/>
  <rect x="110" y="140" width="8" height="38" fill="#111"/>
  <rect x="198" y="132" width="22" height="36" fill="#111"/>
  <rect x="190" y="140" width="8" height="38" fill="#111"/>
  <rect x="96" y="140" width="8" height="26" fill="#4c4c4c"/>
  <rect x="198" y="140" width="8" height="26" fill="#4c4c4c"/>
  <rect x="40" y="116" width="24" height="8" fill="#111"/>
  <rect x="32" y="124" width="8" height="34" fill="#111"/>
  <rect x="40" y="158" width="8" height="16" fill="#111"/>
  <rect x="48" y="174" width="18" height="8" fill="#111"/>
  <rect x="58" y="124" width="12" height="34" fill="#4c4c4c"/>
  <rect x="228" y="116" width="8" height="8" fill="#111"/>
  <rect x="220" y="124" width="8" height="34" fill="#111"/>
  <rect x="212" y="158" width="8" height="16" fill="#111"/>
  <rect x="194" y="174" width="18" height="8" fill="#111"/>
  <rect x="220" y="124" width="8" height="34" fill="#4c4c4c"/>
  <rect x="88" y="32" width="8" height="8" fill="#383838"/>
  <rect x="174" y="18" width="8" height="8" fill="#383838"/>
  <rect x="126" y="154" width="10" height="8" fill="#2c2c2c"/>
  <rect x="170" y="154" width="10" height="8" fill="#2c2c2c"/>
</svg>
